<svg version="1.1" id="Layer_1" xmlns="http://www.w3.org/2000/svg" xmlns:xlink="http://www.w3.org/1999/xlink" x="0px" y="0px"
	 width="100%" viewBox="0 0 883 283" enable-background="new 0 0 883 283" xml:space="preserve">
<path fill="#FFFFFF" opacity="1.000000" stroke="none" 
	d="
M645.000000,284.000000 
	C430.000000,284.000000 215.500000,284.000000 1.000000,284.000000 
	C1.000000,189.666672 1.000000,95.333336 1.000000,1.000000 
	C295.333344,1.000000 589.666687,1.000000 884.000000,1.000000 
	C884.000000,95.333336 884.000000,189.666672 884.000000,284.000000 
	C804.500000,284.000000 725.000000,284.000000 645.000000,284.000000 
M166.949310,151.287842 
	C167.600388,139.480896 162.232208,131.294052 151.366913,126.394417 
	C154.202408,123.906670 157.014511,122.046608 159.051025,119.553101 
	C171.303665,104.550858 162.529205,82.408424 142.227173,80.377159 
	C123.974213,78.550911 105.394325,79.992249 86.660103,79.992249 
	C86.660103,111.835205 86.660103,144.232544 86.660103,176.779694 
	C104.769676,176.779694 122.624924,177.671829 140.346573,176.515778 
	C156.402679,175.468384 164.876434,166.573578 166.949310,151.287842 
M533.354492,176.996979 
	C538.427551,176.996979 543.500610,176.996979 548.481567,176.996979 
	C548.481567,143.911880 548.481567,111.538803 548.481567,79.369034 
	C541.714844,79.369034 535.313904,79.369034 528.544678,79.369034 
	C528.544678,99.783966 528.544678,119.825439 528.544678,140.759109 
	C527.101624,139.115097 526.217896,138.197754 525.433960,137.201843 
	C511.024719,118.896484 496.645905,100.567070 482.189056,82.299423 
	C481.143188,80.977905 479.616455,79.271942 478.195068,79.152573 
	C473.473145,78.755974 468.697174,79.002647 463.969666,79.002647 
	C463.969666,111.991798 463.969666,144.393982 463.969666,176.754028 
	C470.664337,176.754028 477.064758,176.754028 484.068542,176.754028 
	C484.068542,156.256943 484.068542,136.108154 484.068542,114.861870 
	C500.766083,136.112137 516.688171,156.375580 533.354492,176.996979 
M710.048950,167.546387 
	C710.890442,169.715485 711.970459,171.826584 712.515625,174.067749 
	C713.265503,177.150726 715.437012,177.664124 717.811646,177.043152 
	C722.726685,175.757874 728.747070,180.370239 732.702332,174.274399 
	C733.237610,173.449493 733.529907,172.462250 733.901978,171.537018 
	C736.442322,165.221359 738.971741,158.901367 741.508606,152.584320 
	C747.307861,138.143326 753.109253,123.703239 759.085632,108.825089 
	C753.236145,108.825089 747.907776,109.003792 742.599609,108.753174 
	C739.747620,108.618523 738.500305,109.622513 737.601929,112.266556 
	C734.878906,120.281197 731.896118,128.208160 728.972229,136.153748 
	C727.019348,141.460678 724.994507,146.741150 722.672607,152.907883 
	C718.025635,140.290298 713.795532,128.758957 709.530884,117.240425 
	C706.408203,108.806396 706.377869,109.065758 697.587341,108.712296 
	C693.560608,108.550369 691.883850,109.832809 690.569092,113.609749 
	C686.187317,126.197609 681.344116,138.624878 676.337891,152.023239 
	C675.325928,149.627121 674.646729,148.159637 674.078247,146.650436 
	C669.744934,135.146179 665.498291,123.608414 661.027893,112.157883 
	C660.501343,110.809196 658.830078,109.041382 657.608826,108.976135 
	C651.503113,108.649956 645.370544,108.826866 638.904114,108.826866 
	C639.350586,110.259079 639.572815,111.210495 639.936707,112.104248 
	C647.206116,129.956573 654.463074,147.814041 661.784546,165.645004 
	C666.504150,177.139145 666.554321,176.908325 678.744995,177.226593 
	C682.994385,177.337555 684.780334,175.919754 686.140930,172.001907 
	C689.943359,161.053314 694.235168,150.274704 698.716064,138.417633 
	C702.688049,148.594803 706.242371,157.701965 710.048950,167.546387 
M366.666565,96.501648 
	C366.666565,90.750130 366.666565,84.998611 366.666565,79.377884 
	C359.135223,79.377884 352.412842,79.377884 345.621643,79.377884 
	C345.621643,111.996468 345.621643,144.223129 345.621643,176.733459 
	C352.631653,176.733459 359.353729,176.733459 366.889404,176.733459 
	C366.889404,167.372375 366.889404,158.247162 366.889404,147.704956 
	C375.361511,157.245743 382.712067,165.594345 390.169067,173.846786 
	C391.323517,175.124390 392.932007,176.802795 394.387909,176.861023 
	C401.959564,177.163910 409.549805,177.002121 418.331482,177.002121 
	C407.860565,164.669052 398.120331,153.196579 388.082581,141.373672 
	C397.498108,130.656845 406.814941,120.052353 416.982117,108.480034 
	C410.935242,108.480034 406.253845,108.947815 401.704224,108.372955 
	C394.459290,107.457520 389.611633,110.161812 385.228363,115.874443 
	C379.843964,122.891716 373.500519,129.173096 366.666107,136.780548 
	C366.666107,122.714729 366.666107,110.107819 366.666565,96.501648 
M620.604187,112.854248 
	C605.221130,103.433258 581.957642,106.016716 571.564392,118.702072 
	C561.640747,130.814209 561.019775,144.702301 566.357727,158.670151 
	C571.417542,171.909821 582.522156,177.286057 596.078064,178.609039 
	C613.083435,180.268677 628.081604,171.822372 633.451172,157.324127 
	C639.673706,140.522903 634.766724,122.787834 620.604187,112.854248 
M246.543839,160.945206 
	C251.218887,151.767578 251.966446,142.135941 249.463791,132.280426 
	C245.290283,115.845055 231.272903,106.477097 212.198303,107.140274 
	C193.793411,107.780174 181.796692,118.242699 178.521240,136.510559 
	C175.415253,153.833313 183.837814,170.233231 198.727188,175.854355 
	C217.311737,182.870544 237.038010,176.942276 246.543839,160.945206 
M322.715393,116.784164 
	C309.186157,105.264847 293.996338,104.329765 278.384064,111.033386 
	C263.201691,117.552414 256.504639,136.415558 261.610565,154.603867 
	C269.102203,181.290619 301.314545,182.968185 317.072998,173.239639 
	C335.306793,161.982941 338.254730,134.871567 322.715393,116.784164 
z"/>
<path fill="#4B82FF" opacity="1.000000" stroke="none" 
	d="
M166.932968,151.733673 
	C164.876434,166.573578 156.402679,175.468384 140.346573,176.515778 
	C122.624924,177.671829 104.769676,176.779694 86.660103,176.779694 
	C86.660103,144.232544 86.660103,111.835205 86.660103,79.992249 
	C105.394325,79.992249 123.974213,78.550911 142.227173,80.377159 
	C162.529205,82.408424 171.303665,104.550858 159.051025,119.553101 
	C157.014511,122.046608 154.202408,123.906670 151.366913,126.394417 
	C162.232208,131.294052 167.600388,139.480896 166.932968,151.733673 
M145.808701,144.246094 
	C144.581192,139.799255 141.547501,136.507950 137.194519,136.280289 
	C127.330109,135.764420 117.420219,136.117920 107.331985,136.117920 
	C107.331985,144.095673 107.331985,152.318710 107.331985,160.565842 
	C108.032761,160.767075 108.491043,161.012253 108.949974,161.013474 
	C116.430290,161.033524 123.913383,161.148819 131.390442,160.989304 
	C142.633865,160.749466 146.585815,156.332382 145.808701,144.246094 
M120.500778,119.139740 
	C125.772202,118.763878 131.161346,118.943405 136.282364,117.857941 
	C141.535553,116.744446 143.387039,112.309944 143.437927,107.190468 
	C143.491745,101.775879 141.143524,97.150429 136.304337,96.525955 
	C126.733681,95.290916 117.020927,95.156990 107.364044,94.567657 
	C107.364044,103.489929 107.364044,111.071983 107.364044,119.139877 
	C111.603470,119.139877 115.555122,119.139877 120.500778,119.139740 
z"/>
<path fill="#232527" opacity="1.000000" stroke="none" 
	d="
M532.982422,176.817993 
	C516.688171,156.375580 500.766083,136.112137 484.068542,114.861870 
	C484.068542,136.108154 484.068542,156.256943 484.068542,176.754028 
	C477.064758,176.754028 470.664337,176.754028 463.969666,176.754028 
	C463.969666,144.393982 463.969666,111.991798 463.969666,79.002647 
	C468.697174,79.002647 473.473145,78.755974 478.195068,79.152573 
	C479.616455,79.271942 481.143188,80.977905 482.189056,82.299423 
	C496.645905,100.567070 511.024719,118.896484 525.433960,137.201843 
	C526.217896,138.197754 527.101624,139.115097 528.544678,140.759109 
	C528.544678,119.825439 528.544678,99.783966 528.544678,79.369034 
	C535.313904,79.369034 541.714844,79.369034 548.481567,79.369034 
	C548.481567,111.538803 548.481567,143.911880 548.481567,176.996979 
	C543.500610,176.996979 538.427551,176.996979 532.982422,176.817993 
z"/>
<path fill="#232527" opacity="1.000000" stroke="none" 
	d="
M709.922852,167.177765 
	C706.242371,157.701965 702.688049,148.594803 698.716064,138.417633 
	C694.235168,150.274704 689.943359,161.053314 686.140930,172.001907 
	C684.780334,175.919754 682.994385,177.337555 678.744995,177.226593 
	C666.554321,176.908325 666.504150,177.139145 661.784546,165.645004 
	C654.463074,147.814041 647.206116,129.956573 639.936707,112.104248 
	C639.572815,111.210495 639.350586,110.259079 638.904114,108.826866 
	C645.370544,108.826866 651.503113,108.649956 657.608826,108.976135 
	C658.830078,109.041382 660.501343,110.809196 661.027893,112.157883 
	C665.498291,123.608414 669.744934,135.146179 674.078247,146.650436 
	C674.646729,148.159637 675.325928,149.627121 676.337891,152.023239 
	C681.344116,138.624878 686.187317,126.197609 690.569092,113.609749 
	C691.883850,109.832809 693.560608,108.550369 697.587341,108.712296 
	C706.377869,109.065758 706.408203,108.806396 709.530884,117.240425 
	C713.795532,128.758957 718.025635,140.290298 722.672607,152.907883 
	C724.994507,146.741150 727.019348,141.460678 728.972229,136.153748 
	C731.896118,128.208160 734.878906,120.281197 737.601929,112.266556 
	C738.500305,109.622513 739.747620,108.618523 742.599609,108.753174 
	C747.907776,109.003792 753.236145,108.825089 759.085632,108.825089 
	C753.109253,123.703239 747.307861,138.143326 741.508606,152.584320 
	C738.971741,158.901367 736.442322,165.221359 733.901978,171.537018 
	C733.529907,172.462250 733.237610,173.449493 732.702332,174.274399 
	C728.747070,180.370239 722.726685,175.757874 717.811646,177.043152 
	C715.437012,177.664124 713.265503,177.150726 712.515625,174.067749 
	C711.970459,171.826584 710.890442,169.715485 709.922852,167.177765 
z"/>
<path fill="#4E84FF" opacity="1.000000" stroke="none" 
	d="
M366.666321,97.001274 
	C366.666107,110.107819 366.666107,122.714729 366.666107,136.780548 
	C373.500519,129.173096 379.843964,122.891716 385.228363,115.874443 
	C389.611633,110.161812 394.459290,107.457520 401.704224,108.372955 
	C406.253845,108.947815 410.935242,108.480034 416.982117,108.480034 
	C406.814941,120.052353 397.498108,130.656845 388.082581,141.373672 
	C398.120331,153.196579 407.860565,164.669052 418.331482,177.002121 
	C409.549805,177.002121 401.959564,177.163910 394.387909,176.861023 
	C392.932007,176.802795 391.323517,175.124390 390.169067,173.846786 
	C382.712067,165.594345 375.361511,157.245743 366.889404,147.704956 
	C366.889404,158.247162 366.889404,167.372375 366.889404,176.733459 
	C359.353729,176.733459 352.631653,176.733459 345.621643,176.733459 
	C345.621643,144.223129 345.621643,111.996468 345.621643,79.377884 
	C352.412842,79.377884 359.135223,79.377884 366.666565,79.377884 
	C366.666565,84.998611 366.666565,90.750130 366.666321,97.001274 
z"/>
<path fill="#242527" opacity="1.000000" stroke="none" 
	d="
M620.923157,113.025795 
	C634.766724,122.787834 639.673706,140.522903 633.451172,157.324127 
	C628.081604,171.822372 613.083435,180.268677 596.078064,178.609039 
	C582.522156,177.286057 571.417542,171.909821 566.357727,158.670151 
	C561.019775,144.702301 561.640747,130.814209 571.564392,118.702072 
	C581.957642,106.016716 605.221130,103.433258 620.923157,113.025795 
M587.686096,129.399261 
	C583.360474,137.201630 583.768799,145.406784 586.216187,153.516571 
	C588.037354,159.551407 593.283752,162.880386 599.476196,162.925888 
	C605.814270,162.972443 611.293640,159.943115 612.749756,153.762146 
	C614.118042,147.953827 614.322144,141.680359 613.894226,135.693314 
	C613.462646,129.653809 609.752686,125.262527 603.600586,123.656464 
	C597.403870,122.038757 592.142334,123.629433 587.686096,129.399261 
z"/>
<path fill="#4B82FF" opacity="1.000000" stroke="none" 
	d="
M246.361328,161.269562 
	C237.038010,176.942276 217.311737,182.870544 198.727188,175.854355 
	C183.837814,170.233231 175.415253,153.833313 178.521240,136.510559 
	C181.796692,118.242699 193.793411,107.780174 212.198303,107.140274 
	C231.272903,106.477097 245.290283,115.845055 249.463791,132.280426 
	C251.966446,142.135941 251.218887,151.767578 246.361328,161.269562 
M201.162613,154.008347 
	C204.593750,160.489441 209.816772,163.579712 215.958237,162.762405 
	C222.548889,161.885330 227.382919,157.998581 228.453384,151.002594 
	C229.292480,145.518661 229.318207,139.659592 228.345169,134.210037 
	C227.011353,126.739868 221.327072,122.899643 213.973145,123.007401 
	C207.146820,123.107422 201.324707,127.335617 200.415665,134.578781 
	C199.649521,140.683563 200.703125,147.016708 201.162613,154.008347 
z"/>
<path fill="#4B82FF" opacity="1.000000" stroke="none" 
	d="
M322.967407,117.035019 
	C338.254730,134.871567 335.306793,161.982941 317.072998,173.239639 
	C301.314545,182.968185 269.102203,181.290619 261.610565,154.603867 
	C256.504639,136.415558 263.201691,117.552414 278.384064,111.033386 
	C293.996338,104.329765 309.186157,105.264847 322.967407,117.035019 
M310.987701,136.072159 
	C310.721344,135.113953 310.503723,134.138977 310.180847,133.200195 
	C307.827911,126.359230 302.977478,122.896027 295.946564,123.007843 
	C289.431396,123.111465 283.790802,126.808556 282.758026,133.651886 
	C281.796173,140.025040 282.022522,146.836945 283.170776,153.194702 
	C284.273773,159.301514 289.978058,162.714493 296.144501,162.844681 
	C302.415192,162.977097 308.288391,159.401825 309.733002,153.206223 
	C310.953186,147.973129 310.674683,142.390610 310.987701,136.072159 
z"/>
<path fill="#FCFDFF" opacity="1.000000" stroke="none" 
	d="
M145.876923,144.656982 
	C146.585815,156.332382 142.633865,160.749466 131.390442,160.989304 
	C123.913383,161.148819 116.430290,161.033524 108.949974,161.013474 
	C108.491043,161.012253 108.032761,160.767075 107.331985,160.565842 
	C107.331985,152.318710 107.331985,144.095673 107.331985,136.117920 
	C117.420219,136.117920 127.330109,135.764420 137.194519,136.280289 
	C141.547501,136.507950 144.581192,139.799255 145.876923,144.656982 
z"/>
<path fill="#FDFDFF" opacity="1.000000" stroke="none" 
	d="
M120.003777,119.139809 
	C115.555122,119.139877 111.603470,119.139877 107.364044,119.139877 
	C107.364044,111.071983 107.364044,103.489929 107.364044,94.567657 
	C117.020927,95.156990 126.733681,95.290916 136.304337,96.525955 
	C141.143524,97.150429 143.491745,101.775879 143.437927,107.190468 
	C143.387039,112.309944 141.535553,116.744446 136.282364,117.857941 
	C131.161346,118.943405 125.772202,118.763878 120.003777,119.139809 
z"/>
<path fill="#FCFCFC" opacity="1.000000" stroke="none" 
	d="
M587.906006,129.091705 
	C592.142334,123.629433 597.403870,122.038757 603.600586,123.656464 
	C609.752686,125.262527 613.462646,129.653809 613.894226,135.693314 
	C614.322144,141.680359 614.118042,147.953827 612.749756,153.762146 
	C611.293640,159.943115 605.814270,162.972443 599.476196,162.925888 
	C593.283752,162.880386 588.037354,159.551407 586.216187,153.516571 
	C583.768799,145.406784 583.360474,137.201630 587.906006,129.091705 
z"/>
<path fill="#FCFDFF" opacity="1.000000" stroke="none" 
	d="
M201.056915,153.628571 
	C200.703125,147.016708 199.649521,140.683563 200.415665,134.578781 
	C201.324707,127.335617 207.146820,123.107422 213.973145,123.007401 
	C221.327072,122.899643 227.011353,126.739868 228.345169,134.210037 
	C229.318207,139.659592 229.292480,145.518661 228.453384,151.002594 
	C227.382919,157.998581 222.548889,161.885330 215.958237,162.762405 
	C209.816772,163.579712 204.593750,160.489441 201.056915,153.628571 
z"/>
<path fill="#FCFDFF" opacity="1.000000" stroke="none" 
	d="
M311.023590,136.517456 
	C310.674683,142.390610 310.953186,147.973129 309.733002,153.206223 
	C308.288391,159.401825 302.415192,162.977097 296.144501,162.844681 
	C289.978058,162.714493 284.273773,159.301514 283.170776,153.194702 
	C282.022522,146.836945 281.796173,140.025040 282.758026,133.651886 
	C283.790802,126.808556 289.431396,123.111465 295.946564,123.007843 
	C302.977478,122.896027 307.827911,126.359230 310.180847,133.200195 
	C310.503723,134.138977 310.721344,135.113953 311.023590,136.517456 
z"/>
</svg>